# xmcd CD database file
#
# Track frame offsets:
#	150
#	18415
#	40177
#	67592
#	101537
#	124067
#	140520
#	165232
#	193880
#	214417
#
# Disc length: 3103 seconds
#
# Revision: 3
# Processed by: cddbd v1.5.2PL0 Copyright (c) Steve Scherf et al.
# Submitted via: CDex 1.70beta3
#
DISCID=850c1d0a
DTITLE=Kei Akagi Trio (ケイ赤城トリオ) - View Point
DYEAR=2000
DGENRE=Jazz
TTITLE0=Four-Cat Strut
TTITLE1=Private Intersection
TTITLE2=Tagger's Delight
TTITLE3=Spring Can Really Hang You Up The Most
TTITLE4=A Waiting's View
TTITLE5=Giant Steps
TTITLE6=Spin Cycle
TTITLE7=Memories Of You
TTITLE8=Side Room
TTITLE9=Parisian Thoroughfare
EXTD=YEAR: 2000
EXTT0=
EXTT1=
EXTT2=
EXTT3=
EXTT4=
EXTT5=
EXTT6=
EXTT7=
EXTT8=
EXTT9=
PLAYORDER=
